<svg width="183" height="47" viewBox="0 0 183 47" fill="none" xmlns="http://www.w3.org/2000/svg">
<path d="M1.15625 19.6821L13.304 14.8281L25.4517 19.6821L13.304 24.5361L1.15625 19.6821Z" stroke="url(#paint0_linear_157_655)" stroke-width="2.31143" stroke-linejoin="round"/>
<path d="M25.4492 19.7461V25.0757M6.67578 22.2396V29.4293C6.67578 29.4293 9.45528 32.1643 13.3015 32.1643C17.1483 32.1643 19.9278 29.4293 19.9278 29.4293V22.2396" stroke="url(#paint1_linear_157_655)" stroke-width="2.31143" stroke-linecap="round" stroke-linejoin="round"/>
<path d="M42.2267 16.2745V21.9329H48.8836V24.5124H42.2267V30.4204H49.7157V33H39.0647V13.6949H49.7157V16.2745H42.2267ZM53.2498 25.2891C53.2498 23.7543 53.5642 22.3951 54.1929 21.2117C54.8401 20.0282 55.7092 19.1129 56.8002 18.4657C57.9097 17.8 59.1394 17.4672 60.4893 17.4672C61.4878 17.4672 62.4678 17.6891 63.4294 18.1329C64.4094 18.5582 65.1861 19.1314 65.7593 19.8526V12.4745H68.9491V33H65.7593V30.6978C65.2416 31.4375 64.5204 32.0477 63.5958 32.5285C62.6897 33.0092 61.645 33.2496 60.4615 33.2496C59.1301 33.2496 57.9097 32.9168 56.8002 32.2511C55.7092 31.5669 54.8401 30.6238 54.1929 29.4219C53.5642 28.2015 53.2498 26.8239 53.2498 25.2891ZM65.7593 25.3445C65.7593 24.2905 65.5374 23.3752 65.0936 22.5986C64.6683 21.8219 64.1043 21.2302 63.4017 20.8234C62.699 20.4166 61.9408 20.2132 61.1272 20.2132C60.3136 20.2132 59.5554 20.4166 58.8528 20.8234C58.1501 21.2117 57.5769 21.7942 57.1331 22.5708C56.7078 23.329 56.4951 24.235 56.4951 25.2891C56.4951 26.3431 56.7078 27.2676 57.1331 28.0628C57.5769 28.8579 58.1501 29.4681 58.8528 29.8934C59.5739 30.3002 60.3321 30.5037 61.1272 30.5037C61.9408 30.5037 62.699 30.3002 63.4017 29.8934C64.1043 29.4866 64.6683 28.8949 65.0936 28.1183C65.5374 27.3231 65.7593 26.3986 65.7593 25.3445ZM87.6366 17.7168V33H84.4746V31.1971C83.9753 31.8258 83.3188 32.3251 82.5052 32.6949C81.7101 33.0462 80.8595 33.2219 79.9534 33.2219C78.7514 33.2219 77.6697 32.9723 76.7081 32.473C75.7651 31.9737 75.0162 31.2341 74.4614 30.254C73.9252 29.274 73.657 28.0905 73.657 26.7037V17.7168H76.7914V26.2321C76.7914 27.6005 77.1334 28.6545 77.8176 29.3942C78.5018 30.1153 79.4356 30.4759 80.6191 30.4759C81.8025 30.4759 82.7364 30.1153 83.4205 29.3942C84.1232 28.6545 84.4746 27.6005 84.4746 26.2321V17.7168H87.6366ZM91.4481 25.3445C91.4481 23.7728 91.7624 22.3951 92.3911 21.2117C93.0383 20.0098 93.9259 19.0852 95.0539 18.438C96.1819 17.7908 97.4763 17.4672 98.9371 17.4672C100.786 17.4672 102.312 17.911 103.514 18.7986C104.734 19.6677 105.557 20.9158 105.982 22.5431H102.571C102.293 21.7849 101.85 21.1932 101.239 20.7679C100.629 20.3426 99.8617 20.1299 98.9371 20.1299C97.6427 20.1299 96.6072 20.5922 95.8305 21.5168C95.0724 22.4229 94.6933 23.6988 94.6933 25.3445C94.6933 26.9903 95.0724 28.2754 95.8305 29.2C96.6072 30.1246 97.6427 30.5869 98.9371 30.5869C100.768 30.5869 101.979 29.7825 102.571 28.1737H105.982C105.539 29.727 104.706 30.9659 103.486 31.8905C102.266 32.7966 100.749 33.2496 98.9371 33.2496C97.4763 33.2496 96.1819 32.926 95.0539 32.2788C93.9259 31.6131 93.0383 30.6886 92.3911 29.5051C91.7624 28.3032 91.4481 26.9163 91.4481 25.3445ZM108.773 25.2891C108.773 23.7543 109.087 22.3951 109.716 21.2117C110.363 20.0282 111.232 19.1129 112.323 18.4657C113.433 17.8 114.653 17.4672 115.985 17.4672C117.187 17.4672 118.231 17.7076 119.119 18.1883C120.025 18.6506 120.746 19.2331 121.282 19.9358V17.7168H124.472V33H121.282V30.7256C120.746 31.4467 120.016 32.0477 119.091 32.5285C118.167 33.0092 117.113 33.2496 115.929 33.2496C114.616 33.2496 113.414 32.9168 112.323 32.2511C111.232 31.5669 110.363 30.6238 109.716 29.4219C109.087 28.2015 108.773 26.8239 108.773 25.2891ZM121.282 25.3445C121.282 24.2905 121.061 23.3752 120.617 22.5986C120.191 21.8219 119.627 21.2302 118.925 20.8234C118.222 20.4166 117.464 20.2132 116.65 20.2132C115.837 20.2132 115.079 20.4166 114.376 20.8234C113.673 21.2117 113.1 21.7942 112.656 22.5708C112.231 23.329 112.018 24.235 112.018 25.2891C112.018 26.3431 112.231 27.2676 112.656 28.0628C113.1 28.8579 113.673 29.4681 114.376 29.8934C115.097 30.3002 115.855 30.5037 116.65 30.5037C117.464 30.5037 118.222 30.3002 118.925 29.8934C119.627 29.4866 120.191 28.8949 120.617 28.1183C121.061 27.3231 121.282 26.3986 121.282 25.3445ZM133.008 20.2964V28.7562C133.008 29.3294 133.137 29.7455 133.396 30.0044C133.674 30.2448 134.136 30.365 134.783 30.365H136.725V33H134.228C132.804 33 131.714 32.6672 130.955 32.0015C130.197 31.3358 129.818 30.254 129.818 28.7562V20.2964H128.015V17.7168H129.818V13.9168H133.008V17.7168H136.725V20.2964H133.008ZM141.941 15.692C141.368 15.692 140.887 15.4978 140.499 15.1095C140.111 14.7212 139.916 14.2404 139.916 13.6672C139.916 13.0939 140.111 12.6132 140.499 12.2248C140.887 11.8365 141.368 11.6424 141.941 11.6424C142.496 11.6424 142.968 11.8365 143.356 12.2248C143.744 12.6132 143.938 13.0939 143.938 13.6672C143.938 14.2404 143.744 14.7212 143.356 15.1095C142.968 15.4978 142.496 15.692 141.941 15.692ZM143.495 17.7168V33H140.332V17.7168H143.495ZM154.969 33.2496C153.526 33.2496 152.223 32.926 151.058 32.2788C149.893 31.6131 148.977 30.6886 148.312 29.5051C147.646 28.3032 147.313 26.9163 147.313 25.3445C147.313 23.7913 147.655 22.4136 148.339 21.2117C149.024 20.0098 149.957 19.0852 151.141 18.438C152.324 17.7908 153.646 17.4672 155.107 17.4672C156.568 17.4672 157.89 17.7908 159.074 18.438C160.257 19.0852 161.191 20.0098 161.875 21.2117C162.559 22.4136 162.901 23.7913 162.901 25.3445C162.901 26.8978 162.55 28.2754 161.847 29.4774C161.145 30.6793 160.183 31.6131 158.963 32.2788C157.761 32.926 156.429 33.2496 154.969 33.2496ZM154.969 30.5037C155.782 30.5037 156.54 30.3095 157.243 29.9212C157.964 29.5329 158.547 28.9504 158.99 28.1737C159.434 27.3971 159.656 26.454 159.656 25.3445C159.656 24.235 159.444 23.3012 159.018 22.5431C158.593 21.7664 158.029 21.184 157.326 20.7956C156.624 20.4073 155.865 20.2132 155.052 20.2132C154.238 20.2132 153.48 20.4073 152.777 20.7956C152.093 21.184 151.548 21.7664 151.141 22.5431C150.734 23.3012 150.531 24.235 150.531 25.3445C150.531 26.9903 150.947 28.2662 151.779 29.1723C152.629 30.0599 153.693 30.5037 154.969 30.5037ZM174.432 17.4672C175.634 17.4672 176.706 17.7168 177.649 18.2161C178.611 18.7153 179.36 19.455 179.896 20.4351C180.432 21.4151 180.7 22.5986 180.7 23.9854V33H177.566V24.4569C177.566 23.0886 177.224 22.0438 176.54 21.3226C175.855 20.583 174.922 20.2132 173.738 20.2132C172.555 20.2132 171.612 20.583 170.909 21.3226C170.225 22.0438 169.883 23.0886 169.883 24.4569V33H166.721V17.7168H169.883V19.4643C170.401 18.8355 171.057 18.3455 171.852 17.9942C172.666 17.6428 173.526 17.4672 174.432 17.4672Z" fill="black"/>
<defs>
<linearGradient id="paint0_linear_157_655" x1="13.304" y1="14.8281" x2="13.304" y2="24.5361" gradientUnits="userSpaceOnUse">
<stop stop-color="#FF9C1B"/>
<stop offset="1" stop-color="#EC1B09"/>
</linearGradient>
<linearGradient id="paint1_linear_157_655" x1="16.0625" y1="19.7461" x2="16.0625" y2="32.1643" gradientUnits="userSpaceOnUse">
<stop stop-color="#FF9C1B"/>
<stop offset="1" stop-color="#EC1B09"/>
</linearGradient>
</defs>
</svg>
