<svg width="196" height="47" viewBox="0 0 196 47" fill="none" xmlns="http://www.w3.org/2000/svg">
<path d="M10.2283 18.8807V16.5692C10.2283 15.9562 10.4719 15.3683 10.9053 14.9348C11.3388 14.5013 11.9267 14.2578 12.5398 14.2578H17.1626C17.7757 14.2578 18.3636 14.5013 18.7971 14.9348C19.2305 15.3683 19.4741 15.9562 19.4741 16.5692V18.8807M5.60547 25.815L9.24597 26.7245C12.9262 27.6444 16.7762 27.6444 20.4564 26.7245L24.0969 25.815" stroke="url(#paint0_linear_157_656)" stroke-width="2.31143" stroke-linecap="round"/>
<path d="M5.60547 21.1923C5.60547 20.5793 5.84899 19.9913 6.28247 19.5579C6.71595 19.1244 7.30387 18.8809 7.9169 18.8809H21.7855C22.3985 18.8809 22.9864 19.1244 23.4199 19.5579C23.8534 19.9913 24.0969 20.5793 24.0969 21.1923V30.438C24.0969 31.051 23.8534 31.639 23.4199 32.0724C22.9864 32.5059 22.3985 32.7495 21.7855 32.7495H7.9169C7.30387 32.7495 6.71595 32.5059 6.28247 32.0724C5.84899 31.639 5.60547 31.051 5.60547 30.438V21.1923Z" stroke="url(#paint1_linear_157_656)" stroke-width="2.31143" stroke-linejoin="round"/>
<path d="M14.8471 24.6571C15.4854 24.6571 16.0028 24.1397 16.0028 23.5014C16.0028 22.8631 15.4854 22.3457 14.8471 22.3457C14.2088 22.3457 13.6914 22.8631 13.6914 23.5014C13.6914 24.1397 14.2088 24.6571 14.8471 24.6571Z" fill="url(#paint2_linear_157_656)"/>
<path d="M43.2111 16.2745V21.9329H49.868V24.5124H43.2111V30.4204H50.7001V33H40.049V13.6949H50.7001V16.2745H43.2111ZM61.8342 25.2613L66.7714 33H63.1933L59.8926 27.8131L56.786 33H53.4853L58.4225 25.4832L53.4853 17.7168H57.0634L60.3641 22.9037L63.4707 17.7168H66.7714L61.8342 25.2613ZM72.9852 19.9635C73.5215 19.2608 74.2519 18.6691 75.1764 18.1883C76.101 17.7076 77.1458 17.4672 78.3107 17.4672C79.6421 17.4672 80.8533 17.8 81.9443 18.4657C83.0538 19.1129 83.9229 20.0282 84.5516 21.2117C85.1803 22.3951 85.4947 23.7543 85.4947 25.2891C85.4947 26.8239 85.1803 28.2015 84.5516 29.4219C83.9229 30.6238 83.0538 31.5669 81.9443 32.2511C80.8533 32.9168 79.6421 33.2496 78.3107 33.2496C77.1458 33.2496 76.1103 33.0185 75.2042 32.5562C74.2981 32.0754 73.5584 31.4837 72.9852 30.781V40.2671H69.8232V17.7168H72.9852V19.9635ZM82.2772 25.2891C82.2772 24.235 82.0553 23.329 81.6115 22.5708C81.1862 21.7942 80.6129 21.2117 79.8918 20.8234C79.1891 20.4166 78.4309 20.2132 77.6173 20.2132C76.8222 20.2132 76.064 20.4166 75.3429 20.8234C74.6402 21.2302 74.067 21.8219 73.6232 22.5986C73.1979 23.3752 72.9852 24.2905 72.9852 25.3445C72.9852 26.3986 73.1979 27.3231 73.6232 28.1183C74.067 28.8949 74.6402 29.4866 75.3429 29.8934C76.064 30.3002 76.8222 30.5037 77.6173 30.5037C78.4309 30.5037 79.1891 30.3002 79.8918 29.8934C80.6129 29.4681 81.1862 28.8579 81.6115 28.0628C82.0553 27.2676 82.2772 26.3431 82.2772 25.2891ZM103.322 24.984C103.322 25.5572 103.285 26.0749 103.211 26.5372H91.534C91.6265 27.7577 92.0795 28.7377 92.8931 29.4774C93.7068 30.217 94.7053 30.5869 95.8888 30.5869C97.59 30.5869 98.7919 29.8749 99.4946 28.4511H102.906C102.444 29.8565 101.603 31.0122 100.382 31.9182C99.1802 32.8058 97.6824 33.2496 95.8888 33.2496C94.4279 33.2496 93.115 32.926 91.9501 32.2788C90.8036 31.6131 89.8975 30.6886 89.2318 29.5051C88.5846 28.3032 88.261 26.9163 88.261 25.3445C88.261 23.7728 88.5754 22.3951 89.2041 21.2117C89.8513 20.0098 90.7481 19.0852 91.8946 18.438C93.0596 17.7908 94.3909 17.4672 95.8888 17.4672C97.3311 17.4672 98.6162 17.7815 99.7442 18.4102C100.872 19.039 101.751 19.9265 102.379 21.073C103.008 22.201 103.322 23.5046 103.322 24.984ZM100.022 23.9854C100.003 22.8205 99.587 21.8866 98.7734 21.184C97.9598 20.4813 96.952 20.1299 95.7501 20.1299C94.6591 20.1299 93.7253 20.4813 92.9486 21.184C92.172 21.8681 91.7097 22.802 91.5618 23.9854H100.022ZM110.29 19.9358C110.752 19.1591 111.362 18.5582 112.12 18.1329C112.897 17.6891 113.812 17.4672 114.866 17.4672V20.7402H114.062C112.823 20.7402 111.88 21.0545 111.233 21.6832C110.604 22.3119 110.29 23.4029 110.29 24.9562V33H107.128V17.7168H110.29V19.9358ZM120.075 15.692C119.502 15.692 119.021 15.4978 118.633 15.1095C118.244 14.7212 118.05 14.2404 118.05 13.6672C118.05 13.0939 118.244 12.6132 118.633 12.2248C119.021 11.8365 119.502 11.6424 120.075 11.6424C120.63 11.6424 121.101 11.8365 121.49 12.2248C121.878 12.6132 122.072 13.0939 122.072 13.6672C122.072 14.2404 121.878 14.7212 121.49 15.1095C121.101 15.4978 120.63 15.692 120.075 15.692ZM121.628 17.7168V33H118.466V17.7168H121.628ZM140.48 24.984C140.48 25.5572 140.443 26.0749 140.369 26.5372H128.692C128.785 27.7577 129.238 28.7377 130.051 29.4774C130.865 30.217 131.863 30.5869 133.047 30.5869C134.748 30.5869 135.95 29.8749 136.653 28.4511H140.064C139.602 29.8565 138.761 31.0122 137.54 31.9182C136.338 32.8058 134.841 33.2496 133.047 33.2496C131.586 33.2496 130.273 32.926 129.108 32.2788C127.962 31.6131 127.056 30.6886 126.39 29.5051C125.743 28.3032 125.419 26.9163 125.419 25.3445C125.419 23.7728 125.733 22.3951 126.362 21.2117C127.009 20.0098 127.906 19.0852 129.053 18.438C130.218 17.7908 131.549 17.4672 133.047 17.4672C134.489 17.4672 135.774 17.7815 136.902 18.4102C138.03 19.039 138.909 19.9265 139.537 21.073C140.166 22.201 140.48 23.5046 140.48 24.984ZM137.18 23.9854C137.161 22.8205 136.745 21.8866 135.931 21.184C135.118 20.4813 134.11 20.1299 132.908 20.1299C131.817 20.1299 130.883 20.4813 130.107 21.184C129.33 21.8681 128.868 22.802 128.72 23.9854H137.18ZM151.997 17.4672C153.198 17.4672 154.271 17.7168 155.214 18.2161C156.176 18.7153 156.924 19.455 157.461 20.4351C157.997 21.4151 158.265 22.5986 158.265 23.9854V33H155.131V24.4569C155.131 23.0886 154.789 22.0438 154.105 21.3226C153.42 20.583 152.487 20.2132 151.303 20.2132C150.12 20.2132 149.177 20.583 148.474 21.3226C147.79 22.0438 147.448 23.0886 147.448 24.4569V33H144.286V17.7168H147.448V19.4643C147.965 18.8355 148.622 18.3455 149.417 17.9942C150.231 17.6428 151.09 17.4672 151.997 17.4672ZM161.938 25.3445C161.938 23.7728 162.252 22.3951 162.881 21.2117C163.528 20.0098 164.416 19.0852 165.544 18.438C166.672 17.7908 167.966 17.4672 169.427 17.4672C171.276 17.4672 172.802 17.911 174.004 18.7986C175.224 19.6677 176.047 20.9158 176.472 22.5431H173.061C172.783 21.7849 172.339 21.1932 171.729 20.7679C171.119 20.3426 170.352 20.1299 169.427 20.1299C168.133 20.1299 167.097 20.5922 166.32 21.5168C165.562 22.4229 165.183 23.6988 165.183 25.3445C165.183 26.9903 165.562 28.2754 166.32 29.2C167.097 30.1246 168.133 30.5869 169.427 30.5869C171.258 30.5869 172.469 29.7825 173.061 28.1737H176.472C176.028 29.727 175.196 30.9659 173.976 31.8905C172.755 32.7966 171.239 33.2496 169.427 33.2496C167.966 33.2496 166.672 32.926 165.544 32.2788C164.416 31.6131 163.528 30.6886 162.881 29.5051C162.252 28.3032 161.938 26.9163 161.938 25.3445ZM194.324 24.984C194.324 25.5572 194.287 26.0749 194.213 26.5372H182.536C182.628 27.7577 183.081 28.7377 183.895 29.4774C184.709 30.217 185.707 30.5869 186.891 30.5869C188.592 30.5869 189.794 29.8749 190.496 28.4511H193.908C193.446 29.8565 192.604 31.0122 191.384 31.9182C190.182 32.8058 188.684 33.2496 186.891 33.2496C185.43 33.2496 184.117 32.926 182.952 32.2788C181.805 31.6131 180.899 30.6886 180.234 29.5051C179.586 28.3032 179.263 26.9163 179.263 25.3445C179.263 23.7728 179.577 22.3951 180.206 21.2117C180.853 20.0098 181.75 19.0852 182.896 18.438C184.061 17.7908 185.393 17.4672 186.891 17.4672C188.333 17.4672 189.618 17.7815 190.746 18.4102C191.874 19.039 192.752 19.9265 193.381 21.073C194.01 22.201 194.324 23.5046 194.324 24.984ZM191.023 23.9854C191.005 22.8205 190.589 21.8866 189.775 21.184C188.962 20.4813 187.954 20.1299 186.752 20.1299C185.661 20.1299 184.727 20.4813 183.95 21.184C183.174 21.8681 182.711 22.802 182.564 23.9854H191.023Z" fill="black"/>
<defs>
<linearGradient id="paint0_linear_157_656" x1="14.8512" y1="14.2578" x2="14.8512" y2="27.4144" gradientUnits="userSpaceOnUse">
<stop stop-color="#FF9C1A"/>
<stop offset="1" stop-color="#E80505"/>
</linearGradient>
<linearGradient id="paint1_linear_157_656" x1="14.8512" y1="18.8809" x2="14.8512" y2="32.7495" gradientUnits="userSpaceOnUse">
<stop stop-color="#FF9C1A"/>
<stop offset="1" stop-color="#E80505"/>
</linearGradient>
<linearGradient id="paint2_linear_157_656" x1="14.8471" y1="22.3457" x2="14.8471" y2="24.6571" gradientUnits="userSpaceOnUse">
<stop stop-color="#FF9C1A"/>
<stop offset="1" stop-color="#E80505"/>
</linearGradient>
</defs>
</svg>
