<svg width="136" height="82" viewBox="0 0 136 82" fill="none" xmlns="http://www.w3.org/2000/svg">
<path d="M6.568 51.12C5.976 51.12 5.552 50.992 5.296 50.736C5.04 50.464 4.912 49.96 4.912 49.224C4.912 48.728 4.96 48.096 5.056 47.328C5.168 46.544 5.344 45.472 5.584 44.112C6 41.6 6.328 39.424 6.568 37.584C6.712 36.432 6.784 35.472 6.784 34.704C6.784 33.984 6.52 33.624 5.992 33.624C5.576 33.624 5.072 33.84 4.48 34.272C3.904 34.688 3.264 35.36 2.56 36.288C2.336 36.592 2.088 36.744 1.816 36.744C1.592 36.744 1.392 36.64 1.216 36.432C1.056 36.208 0.976 35.96 0.976 35.688C0.976 35.432 1.024 35.176 1.12 34.92C1.232 34.648 1.408 34.344 1.648 34.008C2.416 32.936 3.272 32.112 4.216 31.536C5.16 30.944 6.104 30.648 7.048 30.648C7.928 30.648 8.6 30.928 9.064 31.488C9.544 32.048 9.784 32.864 9.784 33.936C9.784 34.368 9.744 34.88 9.664 35.472C9.584 36.048 9.512 36.52 9.448 36.888C9.384 37.256 9.336 37.512 9.304 37.656C10.216 35.048 11.24 33.232 12.376 32.208C13.512 31.168 14.76 30.648 16.12 30.648C17.16 30.648 17.976 31.016 18.568 31.752C19.176 32.488 19.48 33.528 19.48 34.872C19.48 35.4 19.408 36.056 19.264 36.84C20.064 34.632 21 33.048 22.072 32.088C23.144 31.128 24.376 30.648 25.768 30.648C26.888 30.648 27.744 31.008 28.336 31.728C28.944 32.448 29.248 33.456 29.248 34.752C29.248 35.456 29.144 36.312 28.936 37.32L27.472 44.184C27.312 44.984 27.232 45.672 27.232 46.248C27.232 46.92 27.384 47.424 27.688 47.76C28.008 48.096 28.448 48.264 29.008 48.264C29.536 48.264 30.048 48.088 30.544 47.736C31.056 47.384 31.656 46.8 32.344 45.984C32.536 45.76 32.752 45.648 32.992 45.648C33.2 45.648 33.36 45.744 33.472 45.936C33.6 46.128 33.664 46.392 33.664 46.728C33.664 47.352 33.512 47.848 33.208 48.216C32.376 49.224 31.552 49.96 30.736 50.424C29.92 50.888 29.064 51.12 28.168 51.12C26.808 51.12 25.744 50.72 24.976 49.92C24.208 49.104 23.824 48.016 23.824 46.656C23.824 45.712 24.016 44.344 24.4 42.552L25.36 38.16C25.392 38.016 25.448 37.76 25.528 37.392C25.608 37.024 25.672 36.68 25.72 36.36C25.768 36.024 25.792 35.696 25.792 35.376C25.792 34.816 25.68 34.4 25.456 34.128C25.248 33.84 24.944 33.696 24.544 33.696C23.792 33.696 23 34.184 22.168 35.16C21.352 36.12 20.568 37.72 19.816 39.96C19.08 42.2 18.48 45.112 18.016 48.696C17.904 49.656 17.704 50.304 17.416 50.64C17.144 50.96 16.696 51.12 16.072 51.12C15.528 51.12 15.128 50.992 14.872 50.736C14.632 50.48 14.512 50 14.512 49.296C14.512 48.64 14.6 47.784 14.776 46.728C14.952 45.656 15.176 44.4 15.448 42.96C16.184 39.088 16.552 36.592 16.552 35.472C16.552 34.864 16.432 34.416 16.192 34.128C15.968 33.84 15.624 33.696 15.16 33.696C14.376 33.696 13.568 34.144 12.736 35.04C11.904 35.92 11.088 37.496 10.288 39.768C9.504 42.024 8.848 45.08 8.32 48.936C8.208 49.752 8.04 50.32 7.816 50.64C7.608 50.96 7.192 51.12 6.568 51.12ZM40.1301 39.816C40.4981 39.816 40.7541 39.864 40.8981 39.96C41.0421 40.056 41.1141 40.216 41.1141 40.44C41.1141 40.824 40.9061 42.192 40.4901 44.544C40.1221 46.8 39.9061 48.136 39.8421 48.552C39.2501 52.664 38.4341 55.92 37.3941 58.32C36.3541 60.72 34.9701 61.92 33.2421 61.92C32.4261 61.92 31.7621 61.664 31.2501 61.152C30.7381 60.656 30.4821 60 30.4821 59.184C30.4821 58.432 30.6501 57.664 30.9861 56.88C31.3381 56.096 31.9781 55.192 32.9061 54.168C33.8501 53.16 35.1781 52 36.8901 50.688L36.9621 50.136C37.0741 49.544 37.2021 48.696 37.3461 47.592C37.0261 48.744 36.5781 49.624 36.0021 50.232C35.4261 50.824 34.8181 51.12 34.1781 51.12C33.4581 51.12 32.8661 50.792 32.4021 50.136C31.9541 49.464 31.7301 48.632 31.7301 47.64C31.7301 46.44 31.8101 45.344 31.9701 44.352C32.1301 43.344 32.3941 42.28 32.7621 41.16C32.9221 40.68 33.1461 40.336 33.4341 40.128C33.7221 39.92 34.1781 39.816 34.8021 39.816C35.1541 39.816 35.3941 39.872 35.5221 39.984C35.6661 40.096 35.7381 40.264 35.7381 40.488C35.7381 40.616 35.6501 41.048 35.4741 41.784C35.3141 42.376 35.1861 42.912 35.0901 43.392C34.9621 44.048 34.8501 44.68 34.7541 45.288C34.6581 45.88 34.6101 46.368 34.6101 46.752C34.6101 47.36 34.7781 47.664 35.1141 47.664C35.3541 47.664 35.6501 47.424 36.0021 46.944C36.3701 46.464 36.7541 45.736 37.1541 44.76C37.5701 43.784 37.9701 42.584 38.3541 41.16C38.4821 40.68 38.6741 40.336 38.9301 40.128C39.2021 39.92 39.6021 39.816 40.1301 39.816ZM33.5061 59.592C33.9061 59.592 34.3541 59.128 34.8501 58.2C35.3461 57.272 35.8421 55.728 36.3381 53.568C35.1061 54.608 34.2101 55.552 33.6501 56.4C33.1061 57.264 32.8341 58.016 32.8341 58.656C32.8341 58.928 32.8821 59.152 32.9781 59.328C33.0901 59.504 33.2661 59.592 33.5061 59.592Z" fill="#EC1B09"/>
<path d="M61.1114 36.696C61.1114 38.056 60.7594 39.304 60.0554 40.44C59.3514 41.576 58.3274 42.504 56.9834 43.224C55.6394 43.944 54.0394 44.368 52.1834 44.496L51.1514 50.28C50.7514 52.504 49.6634 53.616 47.8874 53.616C46.9114 53.616 46.0074 53.328 45.1754 52.752C44.3594 52.176 43.7034 51.296 43.2074 50.112C42.7114 48.928 42.4634 47.472 42.4634 45.744C42.4634 42.496 42.9834 39.744 44.0234 37.488C45.0794 35.216 46.4874 33.52 48.2474 32.4C50.0234 31.264 51.9754 30.696 54.1034 30.696C55.6074 30.696 56.8794 30.96 57.9194 31.488C58.9754 32.016 59.7674 32.736 60.2954 33.648C60.8394 34.544 61.1114 35.56 61.1114 36.696ZM52.6154 42.024C55.8954 41.608 57.5354 39.904 57.5354 36.912C57.5354 35.856 57.1834 35 56.4794 34.344C55.7914 33.672 54.7194 33.336 53.2634 33.336C51.6154 33.336 50.1754 33.856 48.9434 34.896C47.7274 35.936 46.7834 37.384 46.1114 39.24C45.4554 41.08 45.1274 43.184 45.1274 45.552C45.1274 46.544 45.2234 47.424 45.4154 48.192C45.6234 48.96 45.8794 49.56 46.1834 49.992C46.5034 50.408 46.8074 50.616 47.0954 50.616C47.4954 50.616 47.7994 50.064 48.0074 48.96L48.7994 44.424C48.1754 44.328 47.9034 44.288 47.9834 44.304C47.5034 44.224 47.1914 44.08 47.0474 43.872C46.9034 43.648 46.8314 43.368 46.8314 43.032C46.8314 42.68 46.9274 42.4 47.1194 42.192C47.3274 41.984 47.6074 41.88 47.9594 41.88C48.1194 41.88 48.2394 41.888 48.3194 41.904C48.7034 41.968 48.9994 42.008 49.2074 42.024C49.4154 40.776 49.7114 39.104 50.0954 37.008C50.1914 36.464 50.4074 36.08 50.7434 35.856C51.0954 35.616 51.5034 35.496 51.9674 35.496C52.4954 35.496 52.8714 35.6 53.0954 35.808C53.3354 36 53.4554 36.312 53.4554 36.744C53.4554 37 53.4394 37.208 53.4074 37.368L52.6154 42.024ZM72.8686 43.632C73.0766 43.632 73.2366 43.736 73.3486 43.944C73.4606 44.152 73.5166 44.416 73.5166 44.736C73.5166 45.504 73.2846 45.96 72.8206 46.104C71.8606 46.44 70.8046 46.632 69.6526 46.68C69.3486 48.024 68.7486 49.104 67.8526 49.92C66.9566 50.72 65.9406 51.12 64.8046 51.12C63.8446 51.12 63.0206 50.888 62.3326 50.424C61.6606 49.96 61.1486 49.344 60.7966 48.576C60.4446 47.808 60.2686 46.976 60.2686 46.08C60.2686 44.864 60.5006 43.784 60.9646 42.84C61.4286 41.88 62.0686 41.136 62.8846 40.608C63.7006 40.064 64.6046 39.792 65.5966 39.792C66.8126 39.792 67.7886 40.216 68.5246 41.064C69.2766 41.896 69.7166 42.928 69.8446 44.16C70.5966 44.112 71.4926 43.952 72.5326 43.68C72.6606 43.648 72.7726 43.632 72.8686 43.632ZM64.9966 48.576C65.5086 48.576 65.9486 48.368 66.3166 47.952C66.7006 47.536 66.9566 46.936 67.0846 46.152C66.5886 45.816 66.2046 45.376 65.9326 44.832C65.6766 44.288 65.5486 43.712 65.5486 43.104C65.5486 42.848 65.5726 42.592 65.6206 42.336H65.5006C64.8606 42.336 64.3246 42.648 63.8926 43.272C63.4766 43.88 63.2686 44.744 63.2686 45.864C63.2686 46.744 63.4366 47.416 63.7726 47.88C64.1246 48.344 64.5326 48.576 64.9966 48.576ZM81.1527 43.104C81.5047 43.104 81.8007 43.232 82.0407 43.488C82.2967 43.728 82.4247 44.032 82.4247 44.4C82.4247 44.608 82.3767 44.832 82.2807 45.072C82.0247 45.664 81.6647 46.16 81.2007 46.56C80.7367 46.96 80.2247 47.16 79.6647 47.16C79.2167 47.16 78.8327 47 78.5127 46.68C78.2087 46.36 78.0567 45.928 78.0567 45.384C78.0567 45.08 78.0727 44.752 78.1047 44.4C78.1367 44.144 78.1527 43.968 78.1527 43.872C78.1527 43.744 78.1207 43.648 78.0567 43.584C78.0087 43.52 77.9447 43.488 77.8647 43.488C77.6407 43.488 77.3367 43.76 76.9527 44.304C76.5687 44.832 76.1847 45.536 75.8007 46.416C75.4167 47.296 75.1047 48.224 74.8647 49.2C74.6887 49.968 74.4887 50.48 74.2647 50.736C74.0407 50.992 73.6727 51.12 73.1607 51.12C72.5527 51.12 72.1207 50.8 71.8647 50.16C71.6247 49.52 71.5047 48.496 71.5047 47.088C71.5047 45.008 71.8007 43.032 72.3927 41.16C72.5367 40.696 72.7687 40.36 73.0887 40.152C73.4247 39.928 73.8887 39.816 74.4807 39.816C74.8007 39.816 75.0247 39.856 75.1527 39.936C75.2807 40.016 75.3447 40.168 75.3447 40.392C75.3447 40.648 75.2247 41.224 74.9847 42.12C74.8247 42.76 74.6967 43.32 74.6007 43.8C74.5047 44.28 74.4247 44.872 74.3607 45.576C74.8887 44.2 75.4807 43.08 76.1367 42.216C76.7927 41.352 77.4327 40.736 78.0567 40.368C78.6807 40 79.2487 39.816 79.7607 39.816C80.2247 39.816 80.5767 39.952 80.8167 40.224C81.0727 40.48 81.2007 40.864 81.2007 41.376C81.2007 41.68 81.1127 42.256 80.9367 43.104H81.1527ZM94.0435 45.648C94.2515 45.648 94.4115 45.744 94.5235 45.936C94.6515 46.128 94.7155 46.392 94.7155 46.728C94.7155 47.368 94.5635 47.864 94.2595 48.216C93.5715 49.064 92.8195 49.76 92.0035 50.304C91.1875 50.848 90.2515 51.12 89.1955 51.12C85.9315 51.12 84.2995 48.824 84.2995 44.232C84.2995 43.528 84.3235 42.816 84.3715 42.096H83.4355C82.9555 42.096 82.6275 42.008 82.4515 41.832C82.2915 41.656 82.2115 41.376 82.2115 40.992C82.2115 40.096 82.5715 39.648 83.2915 39.648H84.6595C84.9315 37.888 85.3475 36.28 85.9075 34.824C86.4675 33.368 87.1395 32.208 87.9235 31.344C88.7235 30.48 89.5795 30.048 90.4915 30.048C91.1635 30.048 91.6915 30.344 92.0755 30.936C92.4595 31.528 92.6515 32.272 92.6515 33.168C92.6515 35.648 91.6115 37.808 89.5315 39.648H92.2195C92.4755 39.648 92.6595 39.704 92.7715 39.816C92.8835 39.928 92.9395 40.136 92.9395 40.44C92.9395 41.544 92.0355 42.096 90.2275 42.096H87.2995C87.2675 42.896 87.2515 43.52 87.2515 43.968C87.2515 45.632 87.4435 46.8 87.8275 47.472C88.2275 48.144 88.8515 48.48 89.6995 48.48C90.3875 48.48 90.9955 48.272 91.5235 47.856C92.0515 47.44 92.6755 46.816 93.3955 45.984C93.5875 45.76 93.8035 45.648 94.0435 45.648ZM89.8435 32.352C89.6035 32.352 89.3315 32.656 89.0275 33.264C88.7395 33.856 88.4595 34.688 88.1875 35.76C87.9315 36.816 87.7155 37.992 87.5395 39.288C88.4835 38.472 89.1875 37.56 89.6515 36.552C90.1315 35.528 90.3715 34.6 90.3715 33.768C90.3715 32.824 90.1955 32.352 89.8435 32.352ZM102.337 44.28C102.785 44.28 103.009 44.616 103.009 45.288C103.009 46.552 102.017 47.184 100.033 47.184C99.6494 47.184 99.0974 47.112 98.3774 46.968C98.5854 47.96 98.7534 49.064 98.8814 50.28C99.0254 51.48 99.0974 52.472 99.0974 53.256C99.0974 54.984 98.8174 56.304 98.2574 57.216C97.6974 58.128 96.9614 58.584 96.0494 58.584C94.8974 58.584 94.0734 57.768 93.5774 56.136C93.0974 54.504 92.8574 52.04 92.8574 48.744C92.8574 45.672 93.1854 42.56 93.8414 39.408C94.5134 36.24 95.4254 33.624 96.5774 31.56C97.7454 29.48 99.0254 28.44 100.417 28.44C101.169 28.44 101.753 28.776 102.169 29.448C102.601 30.12 102.817 31.024 102.817 32.16C102.817 35.92 100.569 40.016 96.0734 44.448C95.9134 46.016 95.8334 47.392 95.8334 48.576C95.8334 50.224 95.8894 51.912 96.0014 53.64C96.1134 55.384 96.2974 56.256 96.5534 56.256C97.0334 56.256 97.2734 55.424 97.2734 53.76C97.2734 52.512 97.1854 51.304 97.0094 50.136C96.8494 48.968 96.6254 47.736 96.3374 46.44C96.3214 46.232 96.3854 45.968 96.5294 45.648C96.6894 45.328 96.8814 45.048 97.1054 44.808C97.3294 44.568 97.5294 44.448 97.7054 44.448C98.0254 44.448 98.4094 44.464 98.8574 44.496C99.0014 44.512 99.1694 44.52 99.3614 44.52C100.001 44.52 100.713 44.464 101.497 44.352C101.625 44.336 101.761 44.32 101.905 44.304C102.049 44.288 102.193 44.28 102.337 44.28ZM99.9134 30.816C99.6254 30.816 99.2654 31.304 98.8334 32.28C98.4174 33.256 98.0014 34.552 97.5854 36.168C97.1694 37.768 96.8094 39.464 96.5054 41.256C97.7854 39.8 98.7694 38.288 99.4574 36.72C100.145 35.136 100.497 33.656 100.513 32.28C100.513 31.304 100.313 30.816 99.9134 30.816ZM113.439 43.632C113.647 43.632 113.807 43.736 113.919 43.944C114.031 44.152 114.087 44.416 114.087 44.736C114.087 45.504 113.855 45.96 113.391 46.104C112.431 46.44 111.375 46.632 110.223 46.68C109.919 48.024 109.319 49.104 108.423 49.92C107.527 50.72 106.511 51.12 105.375 51.12C104.415 51.12 103.591 50.888 102.903 50.424C102.231 49.96 101.719 49.344 101.367 48.576C101.015 47.808 100.839 46.976 100.839 46.08C100.839 44.864 101.071 43.784 101.535 42.84C101.999 41.88 102.639 41.136 103.455 40.608C104.271 40.064 105.175 39.792 106.167 39.792C107.383 39.792 108.359 40.216 109.095 41.064C109.847 41.896 110.287 42.928 110.415 44.16C111.167 44.112 112.063 43.952 113.103 43.68C113.231 43.648 113.343 43.632 113.439 43.632ZM105.567 48.576C106.079 48.576 106.519 48.368 106.887 47.952C107.271 47.536 107.527 46.936 107.655 46.152C107.159 45.816 106.775 45.376 106.503 44.832C106.247 44.288 106.119 43.712 106.119 43.104C106.119 42.848 106.143 42.592 106.191 42.336H106.071C105.431 42.336 104.895 42.648 104.463 43.272C104.047 43.88 103.839 44.744 103.839 45.864C103.839 46.744 104.007 47.416 104.343 47.88C104.695 48.344 105.103 48.576 105.567 48.576ZM121.123 45.648C121.331 45.648 121.491 45.744 121.603 45.936C121.731 46.128 121.795 46.392 121.795 46.728C121.795 47.368 121.643 47.864 121.339 48.216C120.651 49.064 119.899 49.76 119.083 50.304C118.283 50.848 117.371 51.12 116.347 51.12C114.939 51.12 113.891 50.48 113.203 49.2C112.531 47.92 112.195 46.264 112.195 44.232C112.195 42.28 112.443 40.056 112.939 37.56C113.451 35.064 114.195 32.92 115.171 31.128C116.163 29.336 117.339 28.44 118.699 28.44C119.467 28.44 120.067 28.8 120.499 29.52C120.947 30.224 121.171 31.24 121.171 32.568C121.171 34.472 120.643 36.68 119.587 39.192C118.531 41.704 117.099 44.192 115.291 46.656C115.403 47.312 115.587 47.784 115.843 48.072C116.099 48.344 116.435 48.48 116.851 48.48C117.507 48.48 118.083 48.296 118.579 47.928C119.075 47.544 119.707 46.896 120.475 45.984C120.667 45.76 120.883 45.648 121.123 45.648ZM118.171 30.816C117.803 30.816 117.387 31.48 116.923 32.808C116.459 34.136 116.051 35.784 115.699 37.752C115.347 39.72 115.155 41.608 115.123 43.416C116.259 41.544 117.163 39.672 117.835 37.8C118.507 35.912 118.843 34.192 118.843 32.64C118.843 31.424 118.619 30.816 118.171 30.816ZM122.999 38.232C122.327 38.232 121.823 38.08 121.487 37.776C121.151 37.456 120.983 37.016 120.983 36.456C120.983 35.896 121.199 35.432 121.631 35.064C122.079 34.68 122.631 34.488 123.287 34.488C123.879 34.488 124.359 34.632 124.727 34.92C125.095 35.208 125.279 35.616 125.279 36.144C125.279 36.784 125.071 37.296 124.655 37.68C124.239 38.048 123.687 38.232 122.999 38.232ZM122.807 51.12C121.767 51.12 121.007 50.752 120.527 50.016C120.063 49.28 119.831 48.304 119.831 47.088C119.831 46.368 119.919 45.448 120.095 44.328C120.287 43.192 120.527 42.136 120.815 41.16C120.959 40.648 121.151 40.296 121.391 40.104C121.631 39.912 122.015 39.816 122.543 39.816C123.359 39.816 123.767 40.088 123.767 40.632C123.767 41.032 123.615 41.96 123.311 43.416C122.927 45.176 122.735 46.368 122.735 46.992C122.735 47.472 122.799 47.84 122.927 48.096C123.055 48.352 123.271 48.48 123.575 48.48C123.863 48.48 124.223 48.28 124.655 47.88C125.087 47.48 125.663 46.848 126.383 45.984C126.575 45.76 126.791 45.648 127.031 45.648C127.239 45.648 127.399 45.744 127.511 45.936C127.639 46.128 127.703 46.392 127.703 46.728C127.703 47.368 127.551 47.864 127.247 48.216C125.663 50.152 124.183 51.12 122.807 51.12ZM129.817 51.12C128.873 51.12 128.065 50.888 127.393 50.424C126.737 49.944 126.241 49.32 125.905 48.552C125.569 47.784 125.401 46.96 125.401 46.08C125.401 44.864 125.625 43.784 126.073 42.84C126.537 41.88 127.161 41.136 127.945 40.608C128.729 40.064 129.609 39.792 130.585 39.792C131.529 39.792 132.337 40.032 133.009 40.512C133.681 40.976 134.185 41.592 134.521 42.36C134.857 43.128 135.025 43.952 135.025 44.832C135.025 46.048 134.793 47.136 134.329 48.096C133.865 49.04 133.233 49.784 132.433 50.328C131.649 50.856 130.777 51.12 129.817 51.12ZM130.081 48.528C130.625 48.528 131.081 48.232 131.449 47.64C131.833 47.048 132.025 46.184 132.025 45.048C132.025 44.168 131.865 43.504 131.545 43.056C131.225 42.608 130.841 42.384 130.393 42.384C129.817 42.384 129.337 42.68 128.953 43.272C128.585 43.848 128.401 44.712 128.401 45.864C128.401 46.776 128.561 47.448 128.881 47.88C129.201 48.312 129.601 48.528 130.081 48.528Z" fill="#FF9C1A"/>
</svg>
